<svg id="Layer_1" data-name="Layer 1" xmlns="http://www.w3.org/2000/svg" viewBox="0 0 20.57 26.45"><defs><style>.cls-1{fill:#f8f9fb;}.cls-2{fill:#d7d7db;}.cls-3{fill:#38383d;}</style></defs><title>mob</title><rect class="cls-1" x="1.42" y="1.29" width="11.96" height="21.38" rx="1" ry="1"/><path class="cls-2" d="M16.88,2.33h-8a3,3,0,0,0-3,3v17a3,3,0,0,0,3,3h8a3,3,0,0,0,3-3v-17A3,3,0,0,0,16.88,2.33Zm-3,22.06a.5.5,0,0,1-.5.5H11.13a.5.5,0,0,1-.5-.5V24a.5.5,0,0,1,.5-.5h2.28a.5.5,0,0,1,.5.5Zm4-2.27a1,1,0,0,1-1,1h-8a1,1,0,0,1-1-1V5.33a1,1,0,0,1,1-1h8a1,1,0,0,1,1,1Z" transform="translate(-5.88 -2.33)"/><rect class="cls-3" x="3" y="2.88" width="2" height="2" rx="0.5" ry="0.5"/><rect class="cls-3" x="6.03" y="2.88" width="2" height="2" rx="0.5" ry="0.5"/><rect class="cls-3" x="9.06" y="2.88" width="2" height="2" rx="0.5" ry="0.5"/><rect class="cls-3" x="3" y="5.75" width="2" height="2" rx="0.5" ry="0.5"/><rect class="cls-3" x="6.03" y="5.75" width="2" height="2" rx="0.5" ry="0.5"/><rect class="cls-3" x="9.06" y="5.75" width="2" height="2" rx="0.5" ry="0.5"/><rect class="cls-3" x="3" y="8.72" width="2" height="2" rx="0.5" ry="0.5"/><rect class="cls-3" x="6.03" y="8.72" width="2" height="2" rx="0.5" ry="0.5"/><rect class="cls-3" x="9.06" y="8.72" width="2" height="2" rx="0.5" ry="0.5"/><rect class="cls-3" x="3" y="11.72" width="2" height="2" rx="0.5" ry="0.5"/><rect class="cls-3" x="6.03" y="11.72" width="2" height="2" rx="0.5" ry="0.5"/><rect class="cls-3" x="3" y="14.59" width="2" height="2" rx="0.5" ry="0.5"/><path class="cls-3" d="M24.66,17.5l-.56.21a6.22,6.22,0,0,0-1.2-1.27l.25-.56a1,1,0,0,0-.52-1.38l-1-.43a1,1,0,0,0-1.38.52l-.25.56a6.22,6.22,0,0,0-1.73-.05l-.22-.59a1,1,0,0,0-1.35-.61l-1,.37a1,1,0,0,0-.61,1.35l.22.59a6.22,6.22,0,0,0-1.26,1.18l-.59-.26a1,1,0,0,0-1.38.52l-.43,1A1,1,0,0,0,12.26,20l.58.26A6.22,6.22,0,0,0,12.77,22l-.6.23a1,1,0,0,0-.61,1.35l.37,1a1,1,0,0,0,1.35.61l.58-.22A6.21,6.21,0,0,0,15,26.18l-.25.56a1,1,0,0,0,.52,1.38l1,.43A1,1,0,0,0,17.65,28l.24-.54a6.21,6.21,0,0,0,1.75.06l.21.56a1,1,0,0,0,1.35.61l1-.37A1,1,0,0,0,22.79,27l-.21-.54a6.21,6.21,0,0,0,1.29-1.2l.53.24A1,1,0,0,0,25.79,25l.43-1a1,1,0,0,0-.52-1.38l-.53-.24a6.22,6.22,0,0,0,.05-1.76l.55-.21a1,1,0,0,0,.61-1.35l-.37-1A1,1,0,0,0,24.66,17.5Z" transform="translate(-5.88 -2.33)"/><circle class="cls-1" cx="18.97" cy="21.31" r="4.18" transform="translate(-12.2 5.78) rotate(-20.78)"/></svg>