<svg id="Layer_1" data-name="Layer 1" xmlns="http://www.w3.org/2000/svg" viewBox="0 0 23.94 24.25"><defs><style>.cls-1{fill:#f8f9fb;}.cls-2{fill:#d7d7db;}.cls-3{fill:#38383d;}</style></defs><title>security</title><rect class="cls-1" x="0.98" y="0.74" width="5" height="2.5" rx="1.25" ry="1.25"/><rect class="cls-1" x="0.94" y="5.81" width="5" height="2.5" rx="1.25" ry="1.25"/><rect class="cls-1" x="0.94" y="10.88" width="5" height="2.5" rx="1.25" ry="1.25"/><rect class="cls-1" x="0.94" y="15.94" width="5" height="2.5" rx="1.25" ry="1.25"/><rect class="cls-1" x="0.94" y="21" width="5" height="2.5" rx="1.25" ry="1.25"/><path class="cls-2" d="M25.66,8.11H3.72a1,1,0,0,0-1,1v2a1,1,0,0,0,1,1H25.66a1,1,0,0,0,1-1v-2A1,1,0,0,0,25.66,8.11ZM7,11.11H5a1,1,0,1,1,0-2H7a1,1,0,1,1,0,2Z" transform="translate(-2.72 -3.05)"/><path class="cls-2" d="M25.66,3H3.72a1,1,0,0,0-1,1V6a1,1,0,0,0,1,1H25.66a1,1,0,0,0,1-1V4A1,1,0,0,0,25.66,3ZM7,6H5A1,1,0,0,1,5,4H7A1,1,0,0,1,7,6Z" transform="translate(-2.72 -3.05)"/><path class="cls-2" d="M12.79,13.17h-9a1,1,0,0,0-1,1v2a1,1,0,0,0,1,1h9a1,1,0,0,0,1-1v-2A1,1,0,0,0,12.79,13.17ZM7,16.17H5a1,1,0,1,1,0-2H7a1,1,0,0,1,0,2Z" transform="translate(-2.72 -3.05)"/><path class="cls-2" d="M12.79,18.24h-9a1,1,0,0,0-1,1v2a1,1,0,0,0,1,1h9a1,1,0,0,0,1-1v-2A1,1,0,0,0,12.79,18.24ZM7,21.24H5a1,1,0,0,1,0-2H7a1,1,0,0,1,0,2Z" transform="translate(-2.72 -3.05)"/><path class="cls-2" d="M12.79,23.3h-9a1,1,0,0,0-1,1v2a1,1,0,0,0,1,1h9a1,1,0,0,0,1-1v-2A1,1,0,0,0,12.79,23.3ZM7,26.3H5a1,1,0,0,1,0-2H7a1,1,0,0,1,0,2Z" transform="translate(-2.72 -3.05)"/><path class="cls-3" d="M25.63,18.25h-1s0-.05,0-.08V15.92a3,3,0,0,0-3-3H19.67a3,3,0,0,0-3,3v2.25s0,.06,0,.08h-.88a1,1,0,0,0-1,1v7a1,1,0,0,0,1,1h9.83a1,1,0,0,0,1-1v-7A1,1,0,0,0,25.63,18.25Zm-7-2.5a1,1,0,0,1,1-1h2a1,1,0,0,1,1,1v2.5h-4Z" transform="translate(-2.72 -3.05)"/></svg>