<svg id="Layer_1" data-name="Layer 1" xmlns="http://www.w3.org/2000/svg" viewBox="0 0 24 23"><defs><style>.cls-1{fill:#f8f9fb;}.cls-2{fill:#d7d7db;}.cls-3{fill:#38383d;}</style></defs><title>seo</title><rect class="cls-1" x="1.38" y="1.38" width="21.54" height="15.46" rx="1" ry="1"/><rect class="cls-2" x="11" y="18" width="2" height="3"/><rect class="cls-2" x="7" y="21" width="10" height="2" rx="1" ry="1"/><path class="cls-2" d="M24.58,4h-18a3,3,0,0,0-3,3V19a3,3,0,0,0,3,3h18a3,3,0,0,0,3-3V7A3,3,0,0,0,24.58,4Zm1.06,15a1,1,0,0,1-1,1h-18a1,1,0,0,1-1-1V7a1,1,0,0,1,1-1h18a1,1,0,0,1,1,1Z" transform="translate(-3.58 -4)"/><path class="cls-3" d="M12.35,13.62,7.8,17.52a.46.46,0,0,1-.66-.07h0a.52.52,0,0,1,.07-.7l4.55-3.9a.46.46,0,0,1,.66.07h0A.52.52,0,0,1,12.35,13.62Z" transform="translate(-3.58 -4)"/><path class="cls-3" d="M17.73,16.13l-5-2.54a.51.51,0,0,1-.22-.67h0a.46.46,0,0,1,.63-.24l5,2.54a.51.51,0,0,1,.22.67h0A.46.46,0,0,1,17.73,16.13Z" transform="translate(-3.58 -4)"/><path class="cls-3" d="M23.65,10.48,18.5,15.94a.46.46,0,0,1-.67,0h0a.52.52,0,0,1,0-.71L23,9.77a.46.46,0,0,1,.67,0h0A.52.52,0,0,1,23.65,10.48Z" transform="translate(-3.58 -4)"/><ellipse class="cls-3" cx="8.96" cy="9.15" rx="0.94" ry="1"/><ellipse class="cls-3" cx="14.37" cy="11.33" rx="0.94" ry="1"/><ellipse class="cls-3" cx="19.93" cy="5.85" rx="0.94" ry="1"/><ellipse class="cls-3" cx="4.07" cy="12.88" rx="0.94" ry="1"/></svg>