<svg id="Layer_1" data-name="Layer 1" xmlns="http://www.w3.org/2000/svg" viewBox="0 0 27.78 16.7"><defs><style>.cls-1{fill:#f8f9fb;}.cls-2{fill:#d7d7db;}.cls-3{fill:#38383d;}</style></defs><title>web</title><rect class="cls-1" x="7.9" y="0.88" width="15.43" height="11.29" rx="0.73" ry="0.73"/><rect class="cls-2" x="14.83" y="13.07" width="1.45" height="2.18"/><rect class="cls-2" x="11.92" y="15.25" width="7.26" height="1.45" rx="0.73" ry="0.73"/><path class="cls-2" d="M23.19,6.65H10.11A2.19,2.19,0,0,0,7.94,8.83v8.72a2.19,2.19,0,0,0,2.18,2.18H23.19a2.19,2.19,0,0,0,2.18-2.18V8.83A2.19,2.19,0,0,0,23.19,6.65Zm.73,10.89a.73.73,0,0,1-.73.73H10.11a.73.73,0,0,1-.73-.73V8.83a.73.73,0,0,1,.73-.73H23.19a.73.73,0,0,1,.73.73Z" transform="translate(-1.1 -6.65)"/><rect class="cls-3" x="16.28" y="2.22" width="1.45" height="0.73" rx="0.36" ry="0.36"/><rect class="cls-3" x="9.02" y="2.18" width="2.18" height="0.73" rx="0.36" ry="0.36"/><rect class="cls-3" x="9.02" y="8.72" width="5.81" height="0.73" rx="0.36" ry="0.36"/><rect class="cls-3" x="9.02" y="10.17" width="3.63" height="0.73" rx="0.36" ry="0.36"/><rect class="cls-3" x="9.02" y="4.22" width="13.07" height="3.77" rx="0.73" ry="0.73"/><rect class="cls-3" x="18.46" y="2.22" width="1.45" height="0.73" rx="0.36" ry="0.36"/><rect class="cls-3" x="20.64" y="2.22" width="1.45" height="0.73" rx="0.36" ry="0.36"/><path class="cls-3" d="M23.19,16.09c0-.4-.44-.73-1-.73H18.35c-.53,0-1,.33-1,.73v2.18h5.81Z" transform="translate(-1.1 -6.65)"/><rect class="cls-1" x="0.49" y="7.81" width="9.92" height="8.32" rx="0.43" ry="0.43"/><path class="cls-2" d="M10.6,14H2.46A1.3,1.3,0,0,0,1.1,15.25v6.89a1.3,1.3,0,0,0,1.36,1.22H10.6A1.3,1.3,0,0,0,12,22.14V15.25A1.3,1.3,0,0,0,10.6,14Zm.45,8.11a.43.43,0,0,1-.45.41H2.46A.43.43,0,0,1,2,22.14V15.25a.43.43,0,0,1,.45-.41H10.6a.43.43,0,0,1,.45.41Z" transform="translate(-1.1 -6.65)"/><rect class="cls-3" x="1.36" y="8.6" width="1.36" height="0.41" rx="0.2" ry="0.2"/><rect class="cls-3" x="1.36" y="14.27" width="3.62" height="0.41" rx="0.2" ry="0.2"/><rect class="cls-3" x="1.36" y="15.08" width="2.26" height="0.41" rx="0.2" ry="0.2"/><rect class="cls-3" x="8.6" y="8.6" width="0.9" height="0.41" rx="0.2" ry="0.2"/><rect class="cls-3" x="1.36" y="9.41" width="8.14" height="4.46" rx="0.43" ry="0.43"/><path class="cls-3" d="M10.6,21.33c0-.22-.27-.41-.6-.41H7.58c-.33,0-.6.18-.6.41v1.22H10.6Z" transform="translate(-1.1 -6.65)"/><rect class="cls-1" x="22.56" y="8.03" width="4.82" height="8.44" rx="0.4" ry="0.4"/><path class="cls-2" d="M27.68,14.18H24.49a1.2,1.2,0,0,0-1.2,1.2v6.78a1.2,1.2,0,0,0,1.2,1.2h3.19a1.2,1.2,0,0,0,1.2-1.2V15.38A1.2,1.2,0,0,0,27.68,14.18Zm-1.1,8.91h-.95a.2.2,0,1,1,0-.4h.95a.2.2,0,0,1,0,.4Zm1.5-1a.4.4,0,0,1-.4.4H24.49a.4.4,0,0,1-.4-.4v-6.7a.4.4,0,0,1,.4-.4h3.19a.4.4,0,0,1,.4.4Z" transform="translate(-1.1 -6.65)"/><rect class="cls-3" x="23.39" y="8.73" width="1.2" height="0.4" rx="0.2" ry="0.2"/><rect class="cls-3" x="23.39" y="14.31" width="3.19" height="0.4" rx="0.2" ry="0.2"/><rect class="cls-3" x="23.39" y="15.03" width="1.99" height="0.4" rx="0.2" ry="0.2"/><rect class="cls-3" x="25.78" y="8.73" width="0.8" height="0.4" rx="0.2" ry="0.2"/><rect class="cls-3" x="23.39" y="9.53" width="3.19" height="4.39" rx="0.4" ry="0.4"/></svg>